<svg xmlns="http://www.w3.org/2000/svg" viewBox="0 0 468 117"><path d="M196,87.31V29.91h9.43V78.45h23v8.86Z" style="fill:#111827"/><path d="M241.84,87.31V29.91H275v8.45H251.27V54.59H275V63H251.27V78.86H275v8.45Z" style="fill:#111827"/><path d="M347.9,58.53V67h-6.32c-2.87,13.29-12.71,21.73-28,21.73C295.5,88.7,284,75.83,284.1,59c.08-16,10.33-30.5,30.34-30.5,14,0,23.94,8.28,24.93,18.61H329c-1.23-5.74-6.4-10.17-14.6-10.17-14,0-20.5,10.17-20.42,22.06-.08,11.89,7.46,21.24,19.6,21.24,9.43,0,15.74-4.27,18-13.29H320.59V58.53Z" style="fill:#111827"/><path d="M389.39,87.31,387.17,80H365.11l-2.21,7.3H352.65L372,29.91h8.28l19.36,57.4ZM367.57,71.57h17.06L376.1,43.11Z" style="fill:#111827"/><path d="M411,87.31V29.91h9.43V78.45h23v8.86Z" style="fill:#111827"/><path d="M89.36,57.13v10H84C81,80.83,70.83,89,54.92,89,36.55,89,24.49,76.16,24.58,58.86c0-16.73,11.23-30.59,31.07-30.59,15.42,0,26.16,8.28,27.15,19.43H68.28c-1.06-4.75-5.57-8.28-12.54-8.28-11.73,0-17.39,8.37-17.31,19.19-.08,10.74,6.48,18.78,16.81,18.78,7.88,0,13-3.36,15-10.25H60v-10Z" style="fill:#111827"/><path d="M120.52,29.91c12,0,20.58,8.69,20.58,20.75S132.41,71.4,120.52,71.4H109.36V87.31H96.08V29.91Zm-2.06,30.67c5.33,0,9.19-4.18,9.19-9.92s-3.86-9.93-9.19-9.93h-9.1V60.58Z" style="fill:#111827"/><path d="M140.89,100.89V93.35H184.1v7.54Z" style="fill:#111827"/></svg>